# xmcd
#
# Track frame offsets:
#	150
#	12926
#	26581
#	38227
#	50244
#	59479
#	71917
#	89158
#	98816
#	109995
#	124004
#	137889
#	153616
#	167722
#	180000
#	189737
#	205680
#	219821
#	234254
#
# Disc length: 3317 seconds
#
# Revision: 0
# Processed by: cddbd v1.5.1PL2 Copyright (c) Steve Scherf et al.
# Submitted via: EasyCDDAExtractor 9.1.3.1
#
DISCID=100cf313
DTITLE=Kikki Danielsson - Kikki In Country
DYEAR=1900
DGENRE=Country
TTITLE0=Listen To A Country Song
TTITLE1=Talking In Your Sleep
TTITLE2=Walk On By
TTITLE3=Stand By Your Man
TTITLE4=Sweet Little You
TTITLE5=Nine To Five
TTITLE6=U.S. Of America
TTITLE7=Cowboy Yoddle Song
TTITLE8=Diggy Diggy Lo
TTITLE9=Good Year For The Roses
TTITLE10=Stagger Lee
TTITLE11=Texas (When I Die)
TTITLE12=Nashville Tennessee
TTITLE13=9 to 5
TTITLE14=Cowboy yoddle song
TTITLE15=Forget me not
TTITLE16=Good year for the roses
TTITLE17=Nobodys baby but mine
TTITLE18=Queen of hearts
EXTD=
EXTT0=
EXTT1=
EXTT2=
EXTT3=
EXTT4=
EXTT5=
EXTT6=
EXTT7=
EXTT8=
EXTT9=
EXTT10=
EXTT11=
EXTT12=
EXTT13=
EXTT14=
EXTT15=
EXTT16=
EXTT17=
EXTT18=
PLAYORDER=
